name C:\Users\u0101727\Documents\MyRepositories\upper-imu-dc\Results\main_tracking\Case_14\ABD01_angularVelocities_bodyFrame.mot
datacolumns 4
datarows 82
range 2.81000000 3.62000000
endheader 
time	radius_imu_x	radius_imu_y	radius_imu_z	
          2.81000000	          0.19480684	         -0.64312365	          0.06204845	
          2.82000000	          0.15939583	         -0.62846729	          0.02998506	
          2.83000000	          0.13492129	         -0.59276955	          0.01782135	
          2.84000000	          0.11698921	         -0.53060779	          0.01781150	
          2.85000000	          0.10264095	         -0.44407977	          0.02434325	
          2.86000000	          0.09027509	         -0.34212837	          0.03381408	
          2.87000000	          0.07939841	         -0.23878689	          0.04417173	
          2.88000000	          0.07030082	         -0.15023589	          0.05444617	
          2.89000000	          0.06369852	         -0.09162462	          0.06432880	
          2.90000000	          0.06034425	         -0.07371364	          0.07380624	
          2.91000000	          0.06064198	         -0.09983044	          0.08286606	
          2.92000000	          0.06436326	         -0.16412439	          0.09129819	
          2.93000000	          0.07059860	         -0.25243852	          0.09862320	
          2.94000000	          0.07801087	         -0.34636128	          0.10416127	
          2.95000000	          0.08526074	         -0.42884818	          0.10719261	
          2.96000000	          0.09132025	         -0.48817169	          0.10710471	
          2.97000000	          0.09549949	         -0.51836489	          0.10345745	
          2.98000000	          0.09730910	         -0.51772723	          0.09600111	
          2.99000000	          0.09640090	         -0.48811091	          0.08471645	
          3.00000000	          0.09263833	         -0.43533045	          0.06986613	
          3.01000000	          0.08616142	         -0.36901013	          0.05198504	
          3.02000000	          0.07734866	         -0.30100018	          0.03178204	
          3.03000000	          0.06669320	         -0.24308756	          0.00999977	
          3.04000000	          0.05465689	         -0.20504549	         -0.01270515	
          3.05000000	          0.04155733	         -0.19348106	         -0.03583246	
          3.06000000	          0.02750629	         -0.21134750	         -0.05906260	
          3.07000000	          0.01238115	         -0.25778859	         -0.08225114	
          3.08000000	         -0.00417818	         -0.32820839	         -0.10540938	
          3.09000000	         -0.02271242	         -0.41483347	         -0.12867999	
          3.10000000	         -0.04378870	         -0.50812387	         -0.15230344	
          3.11000000	         -0.06777438	         -0.59891878	         -0.17656743	
          3.12000000	         -0.09462546	         -0.68058605	         -0.20174353	
          3.13000000	         -0.12377271	         -0.75033902	         -0.22802526	
          3.14000000	         -0.15414057	         -0.80933929	         -0.25547963	
          3.15000000	         -0.18429348	         -0.86174095	         -0.28401590	
          3.16000000	         -0.21267924	         -0.91310862	         -0.31337139	
          3.17000000	         -0.23791367	         -0.96867529	         -0.34311532	
          3.18000000	         -0.25903759	         -1.03184387	         -0.37267311	
          3.19000000	         -0.27569229	         -1.10326600	         -0.40136840	
          3.20000000	         -0.28818235	         -1.18068043	         -0.42847639	
          3.21000000	         -0.29740712	         -1.25941651	         -0.45328779	
          3.22000000	         -0.30466177	         -1.33326613	         -0.47518903	
          3.23000000	         -0.31135443	         -1.39549625	         -0.49375232	
          3.24000000	         -0.31873207	         -1.43993708	         -0.50880636	
          3.25000000	         -0.32770941	         -1.46202145	         -0.52045272	
          3.26000000	         -0.33884305	         -1.45944775	         -0.52901562	
          3.27000000	         -0.35242437	         -1.43219905	         -0.53494325	
          3.28000000	         -0.36862075	         -1.38207640	         -0.53869079	
          3.29000000	         -0.38758699	         -1.31222423	         -0.54061075	
          3.30000000	         -0.40949988	         -1.22693234	         -0.54087116	
          3.31000000	         -0.43452526	         -1.13155530	         -0.53941306	
          3.32000000	         -0.46276427	         -1.03223542	         -0.53594577	
          3.33000000	         -0.49421388	         -0.93532551	         -0.52997428	
          3.34000000	         -0.52874847	         -0.84664788	         -0.52085917	
          3.35000000	         -0.56612263	         -0.77077528	         -0.50790857	
          3.36000000	         -0.60600649	         -0.71042965	         -0.49048307	
          3.37000000	         -0.64807580	         -0.66603225	         -0.46807141	
          3.38000000	         -0.69216174	         -0.63549972	         -0.44028867	
          3.39000000	         -0.73840151	         -0.61446256	         -0.40679011	
          3.40000000	         -0.78725971	         -0.59698369	         -0.36717060	
          3.41000000	         -0.83932592	         -0.57660623	         -0.32095933	
          3.42000000	         -0.89494977	         -0.54742431	         -0.26776903	
          3.43000000	         -0.95388937	         -0.50492524	         -0.20756624	
          3.44000000	         -1.01511926	         -0.44649085	         -0.14096558	
          3.45000000	         -1.07684416	         -0.37160625	         -0.06943483	
          3.46000000	         -1.13668070	         -0.28189331	          0.00466549	
          3.47000000	         -1.19192414	         -0.18101479	          0.07820906	
          3.48000000	         -1.23981508	         -0.07441839	          0.14753969	
          3.49000000	         -1.27775486	          0.03110384	          0.20874829	
          3.50000000	         -1.30346306	          0.12800898	          0.25795227	
          3.51000000	         -1.31510635	          0.20862927	          0.29158515	
          3.52000000	         -1.31144014	          0.26573884	          0.30672109	
          3.53000000	         -1.29197675	          0.29288970	          0.30146102	
          3.54000000	         -1.25715106	          0.28563767	          0.27517382	
          3.55000000	         -1.20831151	          0.24192526	          0.22871346	
          3.56000000	         -1.14736627	          0.16834888	          0.16361587	
          3.57000000	         -1.07601505	          0.08372909	          0.08106626	
          3.58000000	         -0.99384468	          0.06559255	         -0.02395235	
          3.59000000	         -0.90302924	          0.19181011	         -0.16320833	
          3.60000000	         -0.80756519	          0.13672570	         -0.30001694	
          3.61000000	         -0.71088132	         -0.09926742	         -0.42829399	
          3.62000000	         -0.61641705	         -0.29421087	         -0.56210452	
